<svg xmlns="http://www.w3.org/2000/svg" viewBox="0 0 800 450" fill="none"><defs><linearGradient id="bg" x2="1" y2="1"><stop stop-color="#213536"/><stop offset="1" stop-color="#0b111a"/></linearGradient><linearGradient id="v" x2="1"><stop stop-color="#83ae9b"/><stop offset=".5" stop-color="#cee4d0"/><stop offset="1" stop-color="#638c7f"/></linearGradient><pattern id="g" width="40" height="30" patternUnits="userSpaceOnUse"><path d="M40 0H0v30" stroke="#708c83" stroke-opacity=".15"/></pattern></defs><path fill="url(#bg)" d="M0 0h800v450H0z"/><path fill="url(#g)" d="M0 0h800v450H0z"/><path d="M115 355V78h570v277M145 355V111h510v244" stroke="#a4b8b4" stroke-opacity=".35" stroke-width="9"/><path d="M125 125h550M400 128v92" stroke="#859c96" stroke-width="8"/><path d="M170 326l175-93 295 75-139 99z" fill="#152c2c" stroke="#778f89"/><path d="M180 339l321 68 139-86" stroke="#bdd6c9" stroke-opacity=".4"/><path d="M329 297c0-34 13-88 36-105h84c24 17 36 71 36 105 0 35-156 35-156 0" fill="url(#v)"/><ellipse cx="407" cy="192" rx="42" ry="14" fill="#182d28" stroke="#b4cebc" stroke-width="5"/><path d="M337 258c26 24 111 24 140 0M332 281c36 23 117 19 150 0M346 229c31 22 89 22 122 0" stroke="#244b3e" stroke-opacity=".22" stroke-width="3"/><path d="M374 124h52v44l-16 25h-20l-16-25z" fill="#273938" stroke="#91b7a4"/><path d="M386 139h27" stroke="#cce1d2" stroke-width="3"/><circle cx="399" cy="151" r="3" fill="#b6e5cf"/></svg>
